name D:\PhD\Datasets\SharingData_IBEC_VALDUCE\RM2_Healthy_0001.mot
datacolumns 46
datarows 11
range 7.51000000 7.61000000
endheader
                time	         pelvis_tilt	     pelvis_rotation	           pelvis_tx	           pelvis_ty	           pelvis_tz	       hip_flexion_r	     hip_adduction_r	      hip_rotation_r	        knee_angle_r	       ankle_angle_r	    subtalar_angle_r	         mtp_angle_r	       hip_flexion_l	     hip_adduction_l	      hip_rotation_l	        knee_angle_l	       ankle_angle_l	    subtalar_angle_l	         mtp_angle_l	    lumbar_extension	      lumbar_bending	     lumbar_rotation	          arm_flex_r	           arm_add_r	           arm_rot_r	        elbow_flex_r	           pro_sup_r	        wrist_flex_r	         wrist_dev_r	          arm_flex_l	           arm_add_l	           arm_rot_l	        elbow_flex_l	           pro_sup_l	        wrist_flex_l	         wrist_dev_l	          end_eff_tx	          end_eff_ty	          end_eff_tz	             goal_tx	             goal_ty	             goal_tz	            elbow_tx	            elbow_ty	            elbow_tz	
          7.51000000	          0.00000000	          0.00000000	        308.57839353	        502.43089250	        355.59202949	          0.00000000	          0.00000000	          0.00000000	          0.00000000	          0.00000000	          0.00000000	          0.00000000	          0.00000000	          0.00000000	          0.00000000	          0.00000000	          0.00000000	          0.00000000	          0.00000000	         -1.37454736	          1.83094728	         -0.01877973	         21.78383064	        -39.01243591	         19.05989456	         64.91481781	         82.65715790	          0.00000000	          0.00000000	          0.00000000	          0.00000000	          0.00000000	          0.00000000	          0.00000000	          0.00000000	          0.00000000	        664.37348730	        320.17952800	        584.55489019	       1104.25602913	        673.23448220	        512.71353410	        272.53370953	        355.87414148	        718.81739498	
          7.52000000	          0.00000000	          0.00000000	        308.14977086	        502.58115076	        355.99490673	          0.00000000	          0.00000000	          0.00000000	          0.00000000	          0.00000000	          0.00000000	          0.00000000	          0.00000000	          0.00000000	          0.00000000	          0.00000000	          0.00000000	          0.00000000	          0.00000000	         -1.33962715	          1.89977717	         -0.09076752	         21.28079033	        -38.84792709	         18.95180702	         64.70154572	         83.16241455	          0.00000000	          0.00000000	          0.00000000	          0.00000000	          0.00000000	          0.00000000	          0.00000000	          0.00000000	          0.00000000	        661.29909689	        315.14396944	        584.61867068	       1104.25135220	        673.24732427	        512.71012084	        269.43789496	        353.89170249	        717.74346093	
          7.53000000	          0.00000000	          0.00000000	        307.74674521	        502.77149568	        356.40434707	          0.00000000	          0.00000000	          0.00000000	          0.00000000	          0.00000000	          0.00000000	          0.00000000	          0.00000000	          0.00000000	          0.00000000	          0.00000000	          0.00000000	          0.00000000	          0.00000000	         -1.23980343	          1.96430123	         -0.14273822	         20.64958572	        -38.55429459	         18.72679329	         64.42320251	         83.71110535	          0.00000000	          0.00000000	          0.00000000	          0.00000000	          0.00000000	          0.00000000	          0.00000000	          0.00000000	          0.00000000	        658.20070499	        310.30365310	        584.53836477	       1104.24999357	        673.22630658	        512.69813419	        266.38290849	        352.07157032	        716.79241741	
          7.54000000	          0.00000000	          0.00000000	        307.34121020	        502.91489394	        356.84483667	          0.00000000	          0.00000000	          0.00000000	          0.00000000	          0.00000000	          0.00000000	          0.00000000	          0.00000000	          0.00000000	          0.00000000	          0.00000000	          0.00000000	          0.00000000	          0.00000000	         -1.24601758	          2.00408316	         -0.18906127	         20.14326477	        -38.34729004	         18.48669434	         64.18028259	         83.92157745	          0.00000000	          0.00000000	          0.00000000	          0.00000000	          0.00000000	          0.00000000	          0.00000000	          0.00000000	          0.00000000	        655.08220974	        305.20835720	        584.46539151	       1104.25980145	        673.23396151	        512.69880260	        263.37826988	        350.35392327	        715.88189923	
          7.55000000	          0.00000000	          0.00000000	        306.98546431	        503.03773644	        357.25257409	          0.00000000	          0.00000000	          0.00000000	          0.00000000	          0.00000000	          0.00000000	          0.00000000	          0.00000000	          0.00000000	          0.00000000	          0.00000000	          0.00000000	          0.00000000	          0.00000000	         -1.19709754	          2.07562208	         -0.27319011	         19.66011047	        -38.17295837	         18.40862656	         63.96473694	         84.14023590	          0.00000000	          0.00000000	          0.00000000	          0.00000000	          0.00000000	          0.00000000	          0.00000000	          0.00000000	          0.00000000	        651.86733348	        300.12512881	        584.16479549	       1104.26779029	        673.23041392	        512.69200690	        260.47161077	        348.84702799	        715.15816549	
          7.56000000	          0.00000000	          0.00000000	        306.60926450	        503.11717671	        357.63443759	          0.00000000	          0.00000000	          0.00000000	          0.00000000	          0.00000000	          0.00000000	          0.00000000	          0.00000000	          0.00000000	          0.00000000	          0.00000000	          0.00000000	          0.00000000	          0.00000000	         -1.20942128	          2.13413000	         -0.32211232	         19.25155067	        -38.04072189	         18.39878845	         63.73454666	         84.31073761	          0.00000000	          0.00000000	          0.00000000	          0.00000000	          0.00000000	          0.00000000	          0.00000000	          0.00000000	          0.00000000	        648.69454746	        294.99951989	        583.97780377	       1104.26671787	        673.22912345	        512.71402849	        257.71175482	        347.33805383	        714.32168666	
          7.57000000	          0.00000000	          0.00000000	        306.24856470	        503.16582869	        358.00162684	          0.00000000	          0.00000000	          0.00000000	          0.00000000	          0.00000000	          0.00000000	          0.00000000	          0.00000000	          0.00000000	          0.00000000	          0.00000000	          0.00000000	          0.00000000	          0.00000000	         -1.17294514	          2.19635963	         -0.39723688	         18.72397232	        -37.89932251	         18.38559341	         63.63897705	         84.40155792	          0.00000000	          0.00000000	          0.00000000	          0.00000000	          0.00000000	          0.00000000	          0.00000000	          0.00000000	          0.00000000	        645.72618310	        290.28677394	        583.81478904	       1104.24393536	        673.21957244	        512.69961907	        255.01391246	        345.97625740	        713.74776436	
          7.58000000	          0.00000000	          0.00000000	        305.90244041	        503.25954261	        358.34079732	          0.00000000	          0.00000000	          0.00000000	          0.00000000	          0.00000000	          0.00000000	          0.00000000	          0.00000000	          0.00000000	          0.00000000	          0.00000000	          0.00000000	          0.00000000	          0.00000000	         -1.08936703	          2.26083159	         -0.44573790	         18.27936554	        -37.88868713	         18.49679184	         63.51965332	         84.36594391	          0.00000000	          0.00000000	          0.00000000	          0.00000000	          0.00000000	          0.00000000	          0.00000000	          0.00000000	          0.00000000	        642.65991136	        285.53095790	        583.52914389	       1104.26122511	        673.22307322	        512.70626532	        252.28512333	        344.66287822	        713.09943569	
          7.59000000	          0.00000000	          0.00000000	        305.57141176	        503.33108441	        358.69779965	          0.00000000	          0.00000000	          0.00000000	          0.00000000	          0.00000000	          0.00000000	          0.00000000	          0.00000000	          0.00000000	          0.00000000	          0.00000000	          0.00000000	          0.00000000	          0.00000000	         -1.12191641	          2.33856964	         -0.47608441	         17.79352188	        -37.69171906	         18.54348373	         63.30391693	         85.05946350	          0.00000000	          0.00000000	          0.00000000	          0.00000000	          0.00000000	          0.00000000	          0.00000000	          0.00000000	          0.00000000	        639.31779086	        280.55833726	        583.00110809	       1104.25907388	        673.23697055	        512.69795379	        249.66495742	        343.27975850	        712.33011711	
          7.60000000	          0.00000000	          0.00000000	        305.23619326	        503.42984646	        359.06775048	          0.00000000	          0.00000000	          0.00000000	          0.00000000	          0.00000000	          0.00000000	          0.00000000	          0.00000000	          0.00000000	          0.00000000	          0.00000000	          0.00000000	          0.00000000	          0.00000000	         -1.10114908	          2.38363791	         -0.48400754	         17.38095856	        -37.56506348	         18.56613541	         63.10896683	         85.49015045	          0.00000000	          0.00000000	          0.00000000	          0.00000000	          0.00000000	          0.00000000	          0.00000000	          0.00000000	          0.00000000	        636.17051231	        275.87460226	        582.50113685	       1104.26908263	        673.23525763	        512.69927916	        247.01481790	        342.03779684	        711.69426249	
          7.61000000	          0.00000000	          0.00000000	        304.94269214	        503.57459656	        359.45564326	          0.00000000	          0.00000000	          0.00000000	          0.00000000	          0.00000000	          0.00000000	          0.00000000	          0.00000000	          0.00000000	          0.00000000	          0.00000000	          0.00000000	          0.00000000	          0.00000000	         -1.05590844	          2.44289804	         -0.53002757	         16.99186707	        -37.47502899	         18.60692024	         62.83984375	         86.19409180	          0.00000000	          0.00000000	          0.00000000	          0.00000000	          0.00000000	          0.00000000	          0.00000000	          0.00000000	          0.00000000	        632.93685989	        271.37104384	        581.70816381	       1104.26014500	        673.22764417	        512.69081584	        244.42251627	        340.73168893	        710.91327827	
